<?xml version="1.0" ?><svg height="512" preserveAspectRatio="xMidYMid" viewBox="0 0 512 512" width="512" xmlns="http://www.w3.org/2000/svg" xmlns:xlink="http://www.w3.org/1999/xlink"><defs><style>
      .cls-1 {
        fill: #ffd613;
      }

      .cls-2 {
        fill: #ffd213;
      }

      .cls-2, .cls-3 {
        fill-rule: evenodd;
      }

      .cls-3 {
        fill: #886c60;
      }
    </style></defs><g><circle class="cls-1" cx="256" cy="256" r="256"/><path class="cls-2" d="M283.773,510.511 C274.650,511.495 265.384,512.000 256.000,512.000 C114.615,512.000 -0.000,397.385 -0.000,256.000 C-0.000,243.572 0.886,231.350 2.597,219.396 L186.690,128.801 L217.000,152.000 L326.000,238.000 L371.068,312.637 L283.773,510.511 Z"/><path class="cls-3" d="M261.705,384.000 C195.268,384.000 141.410,330.153 141.410,263.729 C141.410,245.633 145.432,228.485 152.592,213.091 L249.845,306.925 C249.845,306.925 273.155,265.851 310.840,246.789 L216.836,152.138 C230.705,146.558 245.839,143.457 261.705,143.457 C328.142,143.457 382.000,197.305 382.000,263.729 C382.000,330.153 328.142,384.000 261.705,384.000 ZM326.017,318.018 C323.316,306.476 318.464,285.750 318.464,285.750 C318.464,285.750 299.007,297.617 289.661,314.548 L320.657,323.500 C320.657,323.500 328.100,326.914 326.017,318.018 ZM152.592,213.091 L131.958,193.182 C131.958,193.182 129.082,188.879 130.314,186.095 C143.506,156.266 175.817,135.459 187.277,128.803 C190.886,126.707 194.225,129.370 194.225,129.370 L216.836,152.138 C188.452,163.558 165.437,185.471 152.592,213.091 Z"/></g></svg>